<?xml version="1.0" encoding="utf-8"?>
<!-- Generator: Adobe Illustrator 16.0.0, SVG Export Plug-In . SVG Version: 6.00 Build 0)  -->
<!DOCTYPE svg PUBLIC "-//W3C//DTD SVG 1.1//EN" "http://www.w3.org/Graphics/SVG/1.1/DTD/svg11.dtd">
<svg version="1.1" id="Layer_1" xmlns="http://www.w3.org/2000/svg" xmlns:xlink="http://www.w3.org/1999/xlink" x="0px" y="0px"
	 width="999.999px" height="796.507px" viewBox="-161.599 -187.691 999.999 796.507"
	 enable-background="new -161.599 -187.691 999.999 796.507" xml:space="preserve">
<path fill="#0064FF" d="M228.601,462.322c-4.996-2.071-13.186-11.262,0.44-36.852l31.649-66.147
	c0.961-1.999-1.349-4.503-2.792-2.803l-27.673,27.824c-13.095,13.667-35.308,52.082-39.608,59.191l-33.621,55.576
	c2.498-0.079,4.588,1.883,4.667,4.381c0.024,0.823-0.173,1.635-0.574,2.355l-30.729,51.613c-7.504,12.8,5.978,21.748,7.804,18.802
	c48.299-77.796,76.392-71.586,76.392-71.586l16.124-37.336c0.85-1.871,0.02-4.075-1.85-4.925
	C228.756,462.381,228.679,462.351,228.601,462.322z M338.409-187.691c-276.148,0-500.007,223.75-500.007,499.762
	c-0.146,106.849,34.132,210.903,97.755,296.745c20.975-9.054,32.631-22.587,40.956-32.95l93.099-119.009
	c1.961-2.51,4.521-4.481,7.446-5.739l14.016-6.029L244.75,251.013l22.197-17.369l45.612-63.457c1.178-1.642,2.615-3.085,4.254-4.274
	l19.901-14.459c4.918-3.572,11.557-3.628,16.529-0.138l24.148,16.941c12.813,8.986,23.197,21.004,30.232,34.98l96.729,169.821
	c1.58,3.24,4.262,5.811,7.566,7.25c18.969,9.438,30.559,11.107,55.385,38.064c11.586,12.567,62.348,69.314,133.492,157.509
	c10.34,14.148,24.182,25.364,40.164,32.547c63.43-85.776,97.592-189.677,97.439-296.358
	C838.4,36.059,614.551-187.691,338.409-187.691z M-26.755,339.617l-32.419-10.524l-20.027,27.55v-34.046l-32.423-10.525
	l32.423-10.526v-34.058l20.027,27.555l32.419-10.523l-20.031,27.553L-26.755,339.617z M-34.441,451.054l-10.53,32.392l-10.53-32.392
	h-34.072l27.564-20.021l-10.527-32.391l27.565,20.02l27.568-20.02l-10.53,32.391l27.568,20.021H-34.441z M-27.933,193.089
	l10.53,32.391l-27.568-20.02l-27.565,20.02l10.527-32.391l-27.564-20.02h34.072l10.53-32.39l10.533,32.39h34.073L-27.933,193.089z
	 M26.781,119.82L6.764,92.263l-32.419,10.524l20.028-27.552l-20.028-27.554L6.764,58.206l20.028-27.553v34.059l32.42,10.506
	l-32.42,10.527v34.057L26.781,119.82z M111.997,0.589L101.468,32.98L90.937,0.589H56.862l27.567-20.02L73.902-51.821l27.566,20.017
	l27.565-20.02l-10.528,32.417l27.568,20.019h-34.076V0.589z M219.378-54.099L199.35-26.544v-34.049l-32.422-10.523l32.422-10.527
	v-34.058l20.028,27.556l32.405-10.524l-20.028,27.554l20.031,27.552L219.378-54.099z M355.447-85.319l10.529,32.39l-27.567-20.02
	l-27.568,20.02l10.519-32.375l-27.565-20.02h34.073l10.533-32.39l10.531,32.39h34.072L355.447-85.319z M477.455-60.593v34.058
	L457.437-54.09l-32.418,10.525l20.029-27.552L425.021-98.67l32.42,10.524l20.02-27.556v34.058l32.418,10.527L477.455-60.593z
	 M703.558,284.518l32.418,10.523L756,267.487v34.058l32.422,10.526L756,322.596v34.056l-20.023-27.551l-32.418,10.524l20.053-27.553
	L703.558,284.518z M575.347,32.989L564.812,0.597H530.74l27.559-20.02l-10.506-32.393l27.555,20.02l27.557-20.017l-10.506,32.39
	l27.561,20.02h-34.074L575.347,32.989z M650.035,119.829V85.773l-32.42-10.528l32.42-10.507V30.666l20.021,27.553l32.42-10.523
	l-20.021,27.553l20.021,27.552l-32.42-10.524L650.035,119.829z M711.242,173.079l10.539-32.39l10.535,32.39h34.07l-27.557,20.02
	l10.535,32.391l-27.584-20.02l-27.559,20.02l10.535-32.391l-27.586-20.02H711.242z M732.316,451.054l-10.535,32.392l-10.539-32.392
	h-34.07l27.586-20.021l-10.535-32.391l27.559,20.02l27.584-20.02l-10.535,32.391l27.557,20.021H732.316z M519.513,600.895
	c2.402-3.489,6.305-13.063-1.021-30.805l-22.123-59.475c-3.002-7.593,3.572-12.198,7.984-7.206c0,0,41.816,48.195,52.625,68.319
	l20.621,34.22c17.742,1.146,66.701,2.48,113.832,2.48c-4.746-4.713-9.129-9.774-13.119-15.145
	c-80.422-99.66-131.424-155.1-131.934-155.649c-16.299-17.711-23.832-21.112-36.264-26.772c-1.799-0.816-3.752-1.7-5.762-2.655
	v15.13c0.123,1.022-0.607,1.951-1.631,2.072c-0.826,0.099-1.621-0.365-1.939-1.136l-118.24-207.604l-0.328-0.656
	c-4.932-9.777-12.199-18.189-21.158-24.485l-11.533-8.104l-56.406,130.07c6.74-0.003,12.207,5.459,12.21,12.199
	c0.003,1.669-0.34,3.32-1.003,4.853l-52.116,120.503h47.839c18.489,0,36.802,3.599,53.913,10.604l12.609,5.166
	c0,0-38.043,78.238-38.043,119.436c0.056,7.492,1.102,14.944,3.107,22.162h87.694l-4.061-24.695
	c34.4,7.681,69.203,13.418,104.246,17.186V600.895z"/>
</svg>
